# xmcd
#
# Track frame offsets:
#	150
#	15058
#	32803
#	48751
#	60388
#	73912
#	95533
#	108674
#	123024
#	132141
#	150359
#	171681
#
# Disc length: 2555 seconds
#
# Revision: 1
# Processed by: cddbd v1.5.2PL0 Copyright (c) Steve Scherf et al.
# Submitted via: audiograbber 1.83.01
#
DISCID=9309f90c
DTITLE=Salbei and 2 Hot - Whiskey und Frauen
DYEAR=1997
DGENRE=Blues
TTITLE0=Schöne Frauen hinterm Steuer
TTITLE1=Skepsis Blues
TTITLE2=Rein und Raus
TTITLE3=Scotch mit Salbei
TTITLE4=Du bist so scharf
TTITLE5=Herbstlied
TTITLE6=Blues vom dreckigen Schuft
TTITLE7=Whiskey und Frauen
TTITLE8=Ein Glennfiddich fi dich
TTITLE9=Lied vom schwarzen Vogel
TTITLE10=Leuchtfeuer
TTITLE11=Nebel
EXTD=
EXTT0=
EXTT1=
EXTT2=
EXTT3=
EXTT4=
EXTT5=
EXTT6=
EXTT7=
EXTT8=
EXTT9=
EXTT10=
EXTT11=
PLAYORDER=
